<svg width="19" height="19" viewBox="0 0 19 19" fill="none" xmlns="http://www.w3.org/2000/svg">
<path d="M16.8541 8.06335H16.25V8.03223H9.5V11.0322H13.7386C13.1203 12.7786 11.4586 14.0322 9.5 14.0322C7.01487 14.0322 5 12.0174 5 9.53223C5 7.0471 7.01487 5.03223 9.5 5.03223C10.6471 5.03223 11.6908 5.46498 12.4854 6.17185L14.6068 4.05048C13.2673 2.8021 11.4755 2.03223 9.5 2.03223C5.35812 2.03223 2 5.39035 2 9.53223C2 13.6741 5.35812 17.0322 9.5 17.0322C13.6419 17.0322 17 13.6741 17 9.53223C17 9.02935 16.9482 8.53848 16.8541 8.06335Z" fill="#FFC107"/>
<path d="M2.86475 6.04135L5.32887 7.84848C5.99562 6.19773 7.61037 5.03223 9.5 5.03223C10.6471 5.03223 11.6907 5.46498 12.4854 6.17185L14.6067 4.05048C13.2672 2.8021 11.4755 2.03223 9.5 2.03223C6.61925 2.03223 4.121 3.6586 2.86475 6.04135Z" fill="#FF3D00"/>
<path d="M9.49999 17.0322C11.4372 17.0322 13.1975 16.2909 14.5284 15.0852L12.2071 13.121C11.4288 13.7129 10.4778 14.033 9.49999 14.0322C7.54924 14.0322 5.89287 12.7884 5.26887 11.0525L2.82312 12.9369C4.06437 15.3657 6.58512 17.0322 9.49999 17.0322Z" fill="#4CAF50"/>
<path d="M16.8541 8.06335H16.25V8.03223H9.5V11.0322H13.7386C13.4428 11.8634 12.91 12.5897 12.206 13.1214L12.2071 13.1206L14.5284 15.0849C14.3641 15.2341 17 13.2822 17 9.53223C17 9.02935 16.9483 8.53848 16.8541 8.06335Z" fill="#1976D2"/>
</svg>
