<svg width="47" height="47" viewBox="0 0 47 47" fill="none" xmlns="http://www.w3.org/2000/svg">
<g clip-path="url(#clip0_2_2092)">
<path d="M23.5 3.91667C12.69 3.91667 3.91663 12.69 3.91663 23.5C3.91663 34.31 12.69 43.0833 23.5 43.0833C34.31 43.0833 43.0833 34.31 43.0833 23.5C43.0833 12.69 34.31 3.91667 23.5 3.91667ZM25.4583 10.3792L28.102 8.51875C31.6445 9.6165 34.6835 11.9339 36.6795 15.0596L35.9158 17.6838L33.272 18.5846L25.4583 13.1208V10.3792ZM18.8979 8.51875L21.5416 10.3792V13.1208L13.7279 18.5846L11.0841 17.6838L10.3204 15.0596C12.328 11.9446 15.3626 9.63054 18.8979 8.51875ZM13.865 33.5071L11.6325 33.7029C9.17758 30.8711 7.82839 27.2477 7.83329 23.5C7.83329 23.265 7.85288 23.0496 7.87246 22.8146L9.83079 21.385L12.5333 22.325L15.3925 30.8242L13.865 33.5071ZM28.3958 38.3638C26.8487 38.8729 25.2037 39.1667 23.5 39.1667C21.7962 39.1667 20.1512 38.8729 18.6041 38.3638L17.2529 35.4458L18.5062 33.2917H28.5133L29.7666 35.4654L28.3958 38.3638ZM27.9454 29.375H19.0545L16.4108 21.5025L23.5 16.5283L30.6087 21.5025L27.9454 29.375ZM35.3675 33.7029L33.135 33.5071L31.5879 30.8242L34.447 22.325L37.1691 21.4046L39.1275 22.8342C39.147 23.0496 39.1666 23.265 39.1666 23.5C39.1666 27.3971 37.737 30.9613 35.3675 33.7029Z" fill="#0F1A30"/>
</g>
<defs>
<clipPath id="clip0_2_2092">
<rect width="47" height="47" fill="white"/>
</clipPath>
</defs>
</svg>
