<svg width="70" height="70" viewBox="0 0 70 70" fill="none" xmlns="http://www.w3.org/2000/svg">
<g filter="url(#filter0_d_2_3611)">
<path d="M60 33C60 19.1929 48.8071 8 35 8C21.1929 8 10 19.1929 10 33C10 46.8071 21.1929 58 35 58C48.8071 58 60 46.8071 60 33Z" fill="#FF0000"/>
</g>
<g clip-path="url(#clip0_2_3611)">
<path d="M42.5 28H40.8333V35.5H30V37.1667C30 37.625 30.375 38 30.8333 38H40L43.3333 41.3333V28.8333C43.3333 28.375 42.9583 28 42.5 28ZM39.1666 33V25.5C39.1666 25.0417 38.7916 24.6667 38.3333 24.6667H27.5C27.0416 24.6667 26.6666 25.0417 26.6666 25.5V37.1667L30 33.8333H38.3333C38.7916 33.8333 39.1666 33.4583 39.1666 33Z" fill="white"/>
</g>
<defs>
<filter id="filter0_d_2_3611" x="0" y="0" width="70" height="70" filterUnits="userSpaceOnUse" color-interpolation-filters="sRGB">
<feFlood flood-opacity="0" result="BackgroundImageFix"/>
<feColorMatrix in="SourceAlpha" type="matrix" values="0 0 0 0 0 0 0 0 0 0 0 0 0 0 0 0 0 0 127 0" result="hardAlpha"/>
<feOffset dy="2"/>
<feGaussianBlur stdDeviation="5"/>
<feComposite in2="hardAlpha" operator="out"/>
<feColorMatrix type="matrix" values="0 0 0 0 0 0 0 0 0 0 0 0 0 0 0 0 0 0 0.1 0"/>
<feBlend mode="normal" in2="BackgroundImageFix" result="effect1_dropShadow_2_3611"/>
<feBlend mode="normal" in="SourceGraphic" in2="effect1_dropShadow_2_3611" result="shape"/>
</filter>
<clipPath id="clip0_2_3611">
<rect width="20" height="20" fill="white" transform="translate(25 23)"/>
</clipPath>
</defs>
</svg>
