<svg width="46" height="46" viewBox="0 0 46 46" fill="none" xmlns="http://www.w3.org/2000/svg">
<g clip-path="url(#clip0_2_2095)">
<path d="M5.78835 29.9383C5.63502 34.5767 6.40169 38.2567 7.07252 38.9275C7.74335 39.5983 11.4425 40.3842 16.0617 40.2117L5.78835 29.9383ZM25.07 6.28666C20.6042 7.09166 15.8892 8.85499 12.3817 12.3817C8.87419 15.9083 7.09169 20.6042 6.28669 25.07L20.9109 39.6942C25.3959 38.9083 30.0917 37.1258 33.5992 33.5992C37.1067 30.0725 38.8892 25.3767 39.6942 20.9108L25.07 6.28666ZM18.975 29.7083L16.2917 27.025L27.025 16.2917L29.7084 18.975L18.975 29.7083ZM40.2117 16.0617C40.365 11.4233 39.5984 7.74333 38.9275 7.07249C38.2567 6.40166 34.5575 5.61583 29.9384 5.78833L40.2117 16.0617Z" fill="#0F1A30"/>
</g>
<defs>
<clipPath id="clip0_2_2095">
<rect width="46" height="46" fill="white"/>
</clipPath>
</defs>
</svg>
